<svg width="26" height="40" viewBox="0 0 26 40" fill="none" xmlns="http://www.w3.org/2000/svg">
<path d="M1.43948 0C0.890162 0 0.490662 0.399501 0.490662 0.948814V39.0512C0.490662 39.6005 0.890162 40 1.43948 40H24.5606C25.1099 40 25.5094 39.6005 25.5094 39.0512V0.948814C25.5094 0.399501 25.1099 0 24.5606 0L1.43948 0ZM5.48442 4.99376H20.4657V29.9625H5.48442V4.99376ZM12.9751 32.4594C14.3733 32.4594 15.4719 33.5581 15.4719 34.9563C15.4719 36.3546 14.3733 37.4532 12.9751 37.4532C11.5768 37.4532 10.4782 36.3546 10.4782 34.9563C10.4782 33.5581 11.5768 32.4594 12.9751 32.4594Z" fill="white"/>
</svg>
